<svg width="55" height="55" viewBox="0 0 55 55" fill="none" xmlns="http://www.w3.org/2000/svg">
<g clip-path="url(#clip0_2112_244)">
<path d="M27.5 55C42.6878 55 55 42.6878 55 27.5C55 12.3122 42.6878 0 27.5 0C12.3122 0 0 12.3122 0 27.5C0 42.6878 12.3122 55 27.5 55Z" fill="#F3BC36"/>
<path fill-rule="evenodd" clip-rule="evenodd" d="M21.5352 25.0419L27.4999 19.0744L33.4812 25.0557L36.9544 21.5824L27.4999 12.1279L18.0592 21.5659L21.5352 25.0419ZM12.1274 27.5004L15.6007 24.0272L19.0739 27.5004L15.6007 30.9737L12.1274 27.5004ZM21.5352 29.9754L27.4999 35.9264L33.4812 29.9452L36.9544 33.4184L27.4999 42.8757L18.0592 33.4349L21.5352 29.9754ZM35.9259 27.5004L39.3992 24.0272L42.8752 27.5004L39.3992 30.9737L35.9259 27.5004ZM31.0364 27.5004L27.4999 31.0204L23.9799 27.5004L24.5932 26.8844L24.9012 26.5792L27.4999 23.9804L31.0364 27.5004Z" fill="white"/>
</g>
<defs>
<clipPath id="clip0_2112_244">
<rect width="55" height="55" fill="white"/>
</clipPath>
</defs>
</svg>
