<svg width="15" height="16" viewBox="0 0 15 16" fill="none" xmlns="http://www.w3.org/2000/svg">
<path d="M0.255859 6.39117V12.3481C0.255859 13.0888 0.550455 13.7988 1.07404 14.3224C1.59763 14.846 2.30759 15.1406 3.04832 15.1406H11.9841C12.7248 15.1406 13.4348 14.846 13.9584 14.3224C14.482 13.7988 14.7766 13.0889 14.7766 12.3481V4.9014C14.7766 4.1614 14.482 3.45072 13.9584 2.92712C13.4348 2.40353 12.7249 2.10963 11.9841 2.10894H11.0536V1.17836C11.0536 0.86979 10.8029 0.619873 10.4951 0.619873C10.1865 0.619873 9.93658 0.86979 9.93658 1.17836V2.10894H5.09587V1.17836C5.09587 0.86979 4.84595 0.619873 4.53738 0.619873C4.22951 0.619873 3.97889 0.86979 3.97889 1.17836V2.10894H3.04832C2.30763 2.10964 1.59764 2.40353 1.07404 2.92712C0.550455 3.4507 0.255859 4.16137 0.255859 4.9014V6.39117ZM1.37284 4.90211V4.90141C1.37423 3.97711 2.1233 3.22734 3.0483 3.22595H3.97888V4.15722C3.97888 4.4651 4.22949 4.71571 4.53736 4.71571C4.84594 4.71571 5.09585 4.4651 5.09585 4.15722V3.22595H9.93585L9.93655 4.15722C9.93655 4.4651 10.1865 4.71571 10.495 4.71571C10.8029 4.71571 11.0535 4.4651 11.0535 4.15722V3.22595H11.9841C12.9091 3.22734 13.6582 3.97711 13.6596 4.90141V5.83268H1.37282L1.37284 4.90211Z" fill="#666666"/>
</svg>
