<svg width="15" height="13" viewBox="0 0 15 13" fill="none" xmlns="http://www.w3.org/2000/svg">
<path d="M4.99973 4.10511C7.86128 4.10511 9.99946 3.02147 9.99946 2.05253C9.99946 1.08368 7.86123 0 4.99973 0C2.13823 0 4.76242e-05 1.08368 4.76242e-05 2.05253C4.76242e-05 3.02147 2.13818 4.10511 4.99973 4.10511ZM4.99973 12.3157C5.41739 12.3157 5.81939 12.2924 6.20176 12.25C5.87696 11.8504 5.61158 11.4095 5.4132 10.94C5.276 10.9444 5.13832 10.9475 4.99968 10.9475C3.3646 10.9475 1.81615 10.6371 0.639688 10.0736C0.408044 9.96265 0.194878 9.84344 4.76242e-05 9.71726V10.2632C4.76242e-05 11.232 2.13818 12.3157 4.99973 12.3157ZM4.99973 9.57884C5.0144 9.57884 5.02883 9.57861 5.04345 9.57857C5.0138 9.35152 4.99891 9.12293 4.99887 8.89412C4.99887 8.66245 5.01411 8.43417 5.04345 8.21008C5.02883 8.21008 5.01435 8.21058 4.99973 8.21058C3.36465 8.21058 1.81624 7.90022 0.639736 7.33671C0.408044 7.22576 0.194831 7.10655 0 6.98041V7.52627C4.76242e-05 8.49516 2.13818 9.57884 4.99973 9.57884ZM4.99973 6.84191C5.14143 6.84188 5.2813 6.83923 5.41935 6.83397C5.63967 6.31666 5.94123 5.83465 6.31359 5.40462C5.87728 5.45066 5.43867 5.47373 4.99973 5.47373C3.36465 5.47373 1.81624 5.16338 0.639736 4.59987C0.408044 4.48887 0.194831 4.36971 0 4.24352V4.78942C4.76242e-05 5.75832 2.13818 6.84191 4.99973 6.84191ZM7.14282 6.62598C6.82821 7.0785 6.61112 7.58665 6.50427 8.12062C6.45326 8.37555 6.42761 8.63454 6.42765 8.89412C6.42765 9.09289 6.44279 9.28833 6.47141 9.47962C6.54038 9.94051 6.69131 10.3867 6.91765 10.7987C7.15015 11.2218 7.45754 11.6031 7.82613 11.9256C8.5885 12.5926 9.60242 13 10.7138 13C13.0772 13 15 11.1581 15 8.89412C15 6.63009 13.0772 4.78823 10.7138 4.78823C10.4696 4.78823 10.2301 4.80822 9.99679 4.84599C8.80867 5.03847 7.78532 5.70084 7.14282 6.62598Z" fill="#98ED3A"/>
</svg>
