<svg width="16" height="14" viewBox="0 0 16 14" fill="none" xmlns="http://www.w3.org/2000/svg">
<path d="M15.2768 6.34196C15.2768 2.83307 11.8566 0 7.63839 0C3.42017 0 0 2.83419 0 6.34196C0 9.85085 3.42017 12.6839 7.63839 12.6839C8.89245 12.6839 10.0779 12.4362 11.1272 11.9864L13.4981 13.1785L13.3609 10.5474C14.5473 9.42379 15.2768 7.96192 15.2768 6.34196ZM3.9902 7.39969C3.53418 7.39969 3.16899 7.03949 3.16899 6.58969C3.16899 6.13989 3.53418 5.77969 3.9902 5.77969C4.44622 5.77969 4.81141 6.13989 4.81141 6.58969C4.81141 7.03949 4.44622 7.39969 3.9902 7.39969ZM7.63839 7.39969C7.18236 7.39969 6.81718 7.03949 6.81718 6.58969C6.81718 6.13989 7.18236 5.77969 7.63839 5.77969C8.09441 5.77969 8.45959 6.13989 8.45959 6.58969C8.45959 7.03949 8.09441 7.39969 7.63839 7.39969ZM11.2866 7.39969C10.8305 7.39969 10.4654 7.03949 10.4654 6.58969C10.4654 6.13989 10.8305 5.77969 11.2866 5.77969C11.7426 5.77969 12.1078 6.13989 12.1078 6.58969C12.1078 7.03949 11.7426 7.39969 11.2866 7.39969Z" fill="#666666"/>
</svg>
