<svg width="17" height="12" viewBox="0 0 17 12" fill="none" xmlns="http://www.w3.org/2000/svg">
<path fill-rule="evenodd" clip-rule="evenodd" d="M8.40037 0.914185C11.6113 0.914185 14.3976 2.62081 15.7822 4.23801C16.4587 5.02868 16.8007 5.8201 16.8007 6.41446C16.8007 7.00882 16.4587 7.80022 15.7822 8.59091C14.3976 10.2081 11.6112 11.9147 8.40037 11.9147C5.18958 11.9147 2.40314 10.2081 1.01855 8.59091C0.342027 7.80024 0 7.00882 0 6.41446C0 5.8201 0.342008 5.0287 1.01855 4.23801C2.40312 2.62079 5.18958 0.914185 8.40037 0.914185ZM8.40037 3.35875C6.74503 3.35875 5.40022 4.72771 5.40022 6.41446C5.40022 8.10121 6.74503 9.47017 8.40037 9.47017C10.0557 9.47017 11.4005 8.10121 11.4005 6.41446C11.4005 4.72771 10.0557 3.35875 8.40037 3.35875ZM8.40037 4.58104C9.39417 4.58104 10.2005 5.40225 10.2005 6.41446C10.2005 7.42667 9.39417 8.24789 8.40037 8.24789C7.40656 8.24789 6.60028 7.42667 6.60028 6.41446C6.60028 5.40225 7.40656 4.58104 8.40037 4.58104Z" fill="#666666"/>
</svg>
