<svg width="55" height="43" viewBox="0 0 55 43" fill="none" xmlns="http://www.w3.org/2000/svg">
<path fill-rule="evenodd" clip-rule="evenodd" d="M48.4928 43H12.6607C9.2413 43 5.81107 40.4321 4.85724 37.158L0.252248 21.3506C-0.801765 17.7324 1.55379 14.6038 5.33384 14.6038H6.15367V6.48536C6.15367 2.90344 9.06726 0 12.6618 0H25.6882C27.1725 0 28.8044 0.940274 29.539 2.22142L31.1856 5.09298C31.3389 5.36034 31.891 5.67927 32.1979 5.67927H48.4817C52.0793 5.67927 55 8.58681 55 12.166V36.5133C55 39.8135 52.5284 42.538 49.3289 42.9469C49.0517 42.9825 48.7724 43.0003 48.4928 43ZM9.41004 14.6038H41.1659C44.5854 14.6038 48.0156 17.1716 48.9694 20.4457L51.7435 29.9683V12.166C51.7435 10.3799 50.2816 8.92459 48.4817 8.92459H32.1979C30.7231 8.92459 29.0916 7.98231 28.3582 6.70316L26.7116 3.8316C26.5578 3.56333 26.0059 3.24532 25.6882 3.24532H12.6618C10.8657 3.24532 9.41004 4.69581 9.41004 6.48536V14.6038Z" fill="#BAE32F"/>
</svg>
