<svg width="15" height="14" viewBox="0 0 15 14" fill="none" xmlns="http://www.w3.org/2000/svg">
<path opacity="0.68" d="M4.99973 4.42088C7.86128 4.42088 9.99946 3.25389 9.99946 2.21042C9.99946 1.16704 7.86123 0 4.99973 0C2.13823 0 4.76242e-05 1.16704 4.76242e-05 2.21042C4.76242e-05 3.25389 2.13818 4.42088 4.99973 4.42088ZM4.99973 13.263C5.41739 13.263 5.81939 13.238 6.20176 13.1923C5.87696 12.7619 5.61158 12.2871 5.4132 11.7815C5.276 11.7863 5.13832 11.7896 4.99968 11.7896C3.3646 11.7896 1.81615 11.4553 0.639688 10.8485C0.408044 10.729 0.194878 10.6006 4.76242e-05 10.4647V11.0526C4.76242e-05 12.096 2.13818 13.263 4.99973 13.263ZM4.99973 10.3157C5.0144 10.3157 5.02883 10.3154 5.04345 10.3154C5.0138 10.0709 4.99891 9.8247 4.99887 9.57828C4.99887 9.3288 5.01411 9.08295 5.04345 8.84162C5.02883 8.84162 5.01435 8.84216 4.99973 8.84216C3.36465 8.84216 1.81624 8.50793 0.639736 7.90107C0.408044 7.78159 0.194831 7.65321 0 7.51737V8.10521C4.76242e-05 9.14864 2.13818 10.3157 4.99973 10.3157ZM4.99973 7.36821C5.14143 7.36817 5.2813 7.36532 5.41935 7.35966C5.63967 6.80256 5.94123 6.28347 6.31359 5.82036C5.87728 5.86994 5.43867 5.89479 4.99973 5.89479C3.36465 5.89479 1.81624 5.56056 0.639736 4.9537C0.408044 4.83417 0.194831 4.70584 0 4.56995V5.15784C4.76242e-05 6.20127 2.13818 7.36821 4.99973 7.36821ZM7.14282 7.13567C6.82821 7.623 6.61112 8.17024 6.50427 8.74528C6.45326 9.01982 6.42761 9.29874 6.42765 9.57828C6.42765 9.79234 6.44279 10.0028 6.47141 10.2088C6.54038 10.7052 6.69131 11.1856 6.91765 11.6294C7.15015 12.0851 7.45754 12.4957 7.82613 12.8429C8.5885 13.5613 9.60242 14 10.7138 14C13.0772 14 15 12.0164 15 9.57828C15 7.14009 13.0772 5.15656 10.7138 5.15656C10.4696 5.15656 10.2301 5.17808 9.99679 5.21876C8.80867 5.42604 7.78532 6.13936 7.14282 7.13567Z" fill="#66696E"/>
</svg>
