<svg width="46" height="46" viewBox="0 0 46 46" fill="none" xmlns="http://www.w3.org/2000/svg">
<path d="M22.999 0C10.2982 0 0 10.2982 0 22.999C0 35.6999 10.2982 46 22.999 46C35.6999 46 46 35.6999 46 22.999C46 10.2982 35.6999 0 22.999 0ZM27.7869 35.6454C26.6044 36.1127 25.66 36.4683 24.9539 36.7124C24.1614 36.9727 23.3306 37.0971 22.4967 37.0804C21.0636 37.0804 19.9492 36.7306 19.1535 36.0309C17.96 34.9814 17.9639 34.446 17.9639 33.3692C17.9639 32.95 17.9931 32.5222 18.0515 32.0861C18.123 31.5892 18.2185 31.096 18.3377 30.6083L19.8194 25.3745C19.9505 24.8708 20.0615 24.3964 20.1524 23.9512C20.2419 23.5033 20.2861 23.0925 20.2848 22.7186C20.2848 22.0514 20.1472 21.5861 19.872 21.3226C19.5955 21.0604 19.0679 20.9299 18.289 20.9312C17.9074 20.9312 17.5147 20.9896 17.111 21.1065C16.7099 21.2272 16.3666 21.3414 16.081 21.4491L16.4724 19.837C17.442 19.441 18.3701 19.1029 19.2567 18.8225C20.0667 18.5507 20.9142 18.4075 21.7685 18.3981C23.1924 18.3994 24.2906 18.7433 25.0629 19.43C25.8327 20.118 26.2182 21.011 26.2195 22.1092C26.2195 22.3377 26.1929 22.7381 26.1397 23.3106C26.0957 23.8457 25.9965 24.3749 25.8437 24.8897L24.3698 30.1079C24.2389 30.5802 24.1304 31.0584 24.0446 31.5409C23.9653 31.9428 23.9177 32.3504 23.9025 32.7598C23.9025 33.453 24.0576 33.9254 24.3678 34.1773C24.6768 34.4291 25.2135 34.555 25.9781 34.555C26.3363 34.555 26.7426 34.492 27.197 34.3661C27.6487 34.2415 27.9771 34.1312 28.1822 34.0351L27.7869 35.6454ZM27.526 14.4649C26.8566 15.0982 25.9647 15.4423 25.0435 15.4229C24.0764 15.4229 23.2457 15.1036 22.5512 14.4649C22.2216 14.175 21.9582 13.8174 21.7792 13.4166C21.6001 13.0158 21.5094 12.5811 21.5134 12.1421C21.516 11.2347 21.8619 10.4585 22.5512 9.81333C23.2215 9.17412 24.1175 8.82621 25.0435 8.84563C26.0118 8.84563 26.8393 9.1682 27.526 9.81333C28.214 10.4598 28.558 11.236 28.558 12.1421C28.558 13.0507 28.214 13.825 27.526 14.4649Z" fill="#BAE32F"/>
</svg>
