<svg width="69" height="77" viewBox="0 0 69 77" fill="none" xmlns="http://www.w3.org/2000/svg">
<g filter="url(#filter0_d_2112_178)">
<path d="M47.5137 30.4936L39.8904 22.5274C38.9624 21.5783 37.661 21.0104 36.1747 21.0104H25.2037C22.4161 20.8198 20 23.2859 20 26.1313V52.6885C19.9988 53.3865 20.1327 54.0779 20.3939 54.723C20.6551 55.3681 21.0385 55.9542 21.5221 56.4477C22.0057 56.9412 22.5801 57.3323 23.2122 57.5987C23.8443 57.8651 24.5217 58.0014 25.2055 58H43.7945C44.4783 58.0014 45.1557 57.8651 45.7878 57.5987C46.4199 57.3323 46.9943 56.9412 47.4779 56.4477C47.9615 55.9542 48.3449 55.3681 48.6061 54.723C48.8673 54.0779 49.0012 53.3865 49 52.6885V34.0994C49 32.771 48.4417 31.4427 47.5137 30.4936ZM28.9229 35.9957H34.5C35.2431 35.9957 35.9862 36.5655 35.9862 37.5127C35.9862 38.4618 35.4298 39.0297 34.5 39.0297H28.9229C28.7271 39.0322 28.5327 38.9947 28.3513 38.9193C28.1699 38.8439 28.0051 38.7323 27.8666 38.5909C27.7281 38.4496 27.6187 38.2813 27.5449 38.0962C27.471 37.911 27.4343 37.7126 27.4367 37.5127C27.4367 36.5636 28.1798 35.9957 28.9229 35.9957ZM40.0771 46.6186H28.9229C28.1798 46.6186 27.4367 46.0488 27.4367 45.1015C27.4367 44.1543 27.9931 43.5845 28.9229 43.5845H40.0771C40.8202 43.5845 41.5633 44.1525 41.5633 45.1015C41.5633 46.0506 40.8202 46.6186 40.0771 46.6186Z" fill="#98ED3A"/>
</g>
<defs>
<filter id="filter0_d_2112_178" x="0" y="0" width="69" height="77" filterUnits="userSpaceOnUse" color-interpolation-filters="sRGB">
<feFlood flood-opacity="0" result="BackgroundImageFix"/>
<feColorMatrix in="SourceAlpha" type="matrix" values="0 0 0 0 0 0 0 0 0 0 0 0 0 0 0 0 0 0 127 0" result="hardAlpha"/>
<feOffset dy="-1"/>
<feGaussianBlur stdDeviation="10"/>
<feComposite in2="hardAlpha" operator="out"/>
<feColorMatrix type="matrix" values="0 0 0 0 0.596078 0 0 0 0 0.929412 0 0 0 0 0.227451 0 0 0 1 0"/>
<feBlend mode="normal" in2="BackgroundImageFix" result="effect1_dropShadow_2112_178"/>
<feBlend mode="normal" in="SourceGraphic" in2="effect1_dropShadow_2112_178" result="shape"/>
</filter>
</defs>
</svg>
