<svg width="47" height="43" viewBox="0 0 47 43" fill="none" xmlns="http://www.w3.org/2000/svg">
<path d="M45.0417 43H17.625C16.45 43 15.6667 42.2182 15.6667 41.0455V33.2273C15.6667 32.0545 16.45 31.2727 17.625 31.2727H45.0417C46.2167 31.2727 47 32.0545 47 33.2273V41.0455C47 42.2182 46.2167 43 45.0417 43ZM9.79167 43H1.95833C0.783333 43 0 42.2182 0 41.0455V33.2273C0 32.0545 0.783333 31.2727 1.95833 31.2727H9.79167C10.9667 31.2727 11.75 32.0545 11.75 33.2273V41.0455C11.75 42.2182 10.9667 43 9.79167 43ZM45.0417 27.3636H17.625C16.45 27.3636 15.6667 26.5818 15.6667 25.4091V17.5909C15.6667 16.4182 16.45 15.6364 17.625 15.6364H45.0417C46.2167 15.6364 47 16.4182 47 17.5909V25.4091C47 26.5818 46.2167 27.3636 45.0417 27.3636ZM9.79167 27.3636H1.95833C0.783333 27.3636 0 26.5818 0 25.4091V17.5909C0 16.4182 0.783333 15.6364 1.95833 15.6364H9.79167C10.9667 15.6364 11.75 16.4182 11.75 17.5909V25.4091C11.75 26.5818 10.9667 27.3636 9.79167 27.3636ZM45.0417 11.7273H17.625C16.45 11.7273 15.6667 10.9455 15.6667 9.77273V1.95455C15.6667 0.781818 16.45 0 17.625 0H45.0417C46.2167 0 47 0.781818 47 1.95455V9.77273C47 10.9455 46.2167 11.7273 45.0417 11.7273ZM9.79167 11.7273H1.95833C0.783333 11.7273 0 10.9455 0 9.77273V1.95455C0 0.781818 0.783333 0 1.95833 0H9.79167C10.9667 0 11.75 0.781818 11.75 1.95455V9.77273C11.75 10.9455 10.9667 11.7273 9.79167 11.7273Z" fill="#BAE32F"/>
</svg>
