<svg width="177" height="67" viewBox="0 0 177 67" fill="none" xmlns="http://www.w3.org/2000/svg">
<path d="M82.0877 29H72.2877L70.9077 27.62V24.82H73.7077V26.2H80.6877V23.42H72.2877L70.9077 22.42V16.42L72.2877 15H82.0877L83.4677 16.42V19.2H80.6877V17.8H73.7077V20.6H82.0877L83.4677 22V27.62L82.0877 29ZM95.8385 29H86.0385L84.6585 27.62V16.42L86.0385 15H95.8385L97.2185 16.42V19.2H94.4385V17.8H87.4585V26.2H94.4385V24.82H97.2185V27.62L95.8385 29ZM100.814 22.02H107.794V17.8H103.594L100.814 20.62V22.02ZM100.814 29H98.014V19.22L102.194 15H110.574V29H107.794V24.82H100.814V29ZM114.569 29H111.769V15H114.569L119.449 21.78L124.409 15H127.109V29H124.309V19.56L120.649 24.94H118.309L114.569 19.56V29Z" fill="#70D005"/>
<path d="M73.7077 53H70.9077V39H73.7077V44.62H80.6877V39H83.4677V53H80.6877V47.42H73.7077V53ZM84.6585 39H87.4585V50.2H94.4385V39H97.2185V51.62L95.8385 53H86.0385L84.6585 51.62V39ZM110.969 53H108.189L101.209 43.66V53H98.4093V39H101.209L108.189 48.32V39H110.969V53ZM119.26 53H116.46V41.8H111.56V39H124.12V41.8H119.26V53ZM136.599 53H124.719V39H136.599V41.8H127.519V44.62H135.899V47.42H127.519V50.2H136.599V53ZM140.391 46.02H147.371V41.8H140.391V46.02ZM150.151 53H147.371V51.62L145.971 50.2L144.571 48.82H140.391V53H137.591V39H148.771L150.151 40.42V47.42L148.771 48.82L150.151 50.2V53Z" fill="white"/>
<path d="M20.398 22.853L20.398 31.6776L12.6786 23.8513L12.678 18.3524L34.4834 6.853L53.484 21.853L53.5509 29.853L27.0577 43.0823L34.4834 47.853L43.7103 43.8522L43.7103 35.3522L53.4835 42.853L53.4835 48.853L34.4834 57.853L12.6786 43.8522L12.6786 36.853L41.4834 22.353L34.4834 15.853L20.398 22.853Z" fill="#98ED3A"/>
</svg>
