<svg width="12" height="12" viewBox="0 0 12 12" fill="none" xmlns="http://www.w3.org/2000/svg">
<path d="M6.0937 0.000715913C2.70812 -0.0509637 -0.0471996 2.702 0.000613004 6.08675C0.0469959 9.36896 2.75014 12.0175 6.03267 11.9999C6.99007 11.9948 7.89365 11.764 8.69506 11.3603H10.2854C10.7816 11.3603 11.1839 10.958 11.1839 10.4619V9.01995C11.6927 8.14831 11.9895 7.13764 11.9997 6.05797C12.031 2.7684 9.38302 0.050919 6.0937 0.000715913ZM8.42651 7.62589H3.57386C3.34595 7.62589 3.16119 7.44113 3.16119 7.21323C3.16119 6.98532 3.34595 6.80056 3.57386 6.80056H8.42653C8.65441 6.80056 8.8392 6.98532 8.8392 7.21323C8.83917 7.44113 8.65441 7.62589 8.42651 7.62589ZM8.42651 5.30746H3.57386C3.34595 5.30746 3.16119 5.1227 3.16119 4.89479C3.16119 4.66689 3.34595 4.48213 3.57386 4.48213H8.42653C8.65441 4.48213 8.8392 4.66689 8.8392 4.89479C8.83917 5.1227 8.65441 5.30746 8.42651 5.30746Z" fill="#98ED3A"/>
</svg>
