<svg width="14" height="12" viewBox="0 0 14 12" fill="none" xmlns="http://www.w3.org/2000/svg">
<path d="M11.979 6.47857H10.8963C11.0067 6.78388 11.067 7.11336 11.067 7.45677V11.5915C11.067 11.7347 11.0423 11.8721 10.9975 11.9999H12.7874C13.4561 11.9999 14 11.4503 14 10.7747V8.52064C14 7.39466 13.0934 6.47857 11.979 6.47857ZM2.93303 7.45679C2.93303 7.11336 2.99333 6.78391 3.10369 6.4786H2.02098C0.906611 6.4786 0 7.39468 0 8.5207V10.7747C0 11.4503 0.54395 12 1.21259 12H3.00257C2.95648 11.8689 2.93296 11.7307 2.93303 11.5916V7.45679ZM8.23762 5.4147H5.76241C4.64804 5.4147 3.74143 6.33078 3.74143 7.45679V11.5916C3.74143 11.8171 3.92239 12 4.14562 12H9.85441C10.0776 12 10.2586 11.8171 10.2586 11.5916V7.45679C10.2586 6.33078 9.35199 5.4147 8.23762 5.4147ZM7.00001 0C5.65984 0 4.56953 1.1017 4.56953 2.45591C4.56953 3.37445 5.07126 4.17667 5.81223 4.59786C6.16368 4.79762 6.56886 4.91178 7.00001 4.91178C7.43117 4.91178 7.83635 4.79762 8.1878 4.59786C8.92879 4.17667 9.4305 3.37442 9.4305 2.45591C9.4305 1.10173 8.34019 0 7.00001 0ZM2.73214 2.28908C1.72985 2.28908 0.914459 3.11299 0.914459 4.12575C0.914459 5.13851 1.72985 5.96242 2.73214 5.96242C2.97844 5.96263 3.22218 5.91197 3.44841 5.81356C3.82865 5.64814 4.14218 5.35532 4.33618 4.98854C4.47672 4.72315 4.55011 4.42675 4.54982 4.12575C4.54982 3.11302 3.73443 2.28908 2.73214 2.28908ZM11.2679 2.28908C10.2656 2.28908 9.45021 3.11299 9.45021 4.12575C9.44992 4.42675 9.52331 4.72315 9.66385 4.98854C9.85785 5.35535 10.1714 5.64817 10.5516 5.81356C10.7778 5.91197 11.0216 5.96263 11.2679 5.96242C12.2702 5.96242 13.0856 5.13851 13.0856 4.12575C13.0856 3.11299 12.2702 2.28908 11.2679 2.28908Z" fill="#98ED3A"/>
</svg>
