<svg width="47" height="47" viewBox="0 0 47 47" fill="none" xmlns="http://www.w3.org/2000/svg">
<path d="M24.3399 46.9998C27.934 46.4882 31.0848 42.7294 33.0674 37.1787C30.2014 36.5354 27.2767 36.1903 24.34 36.1491L24.3399 46.9998ZM30.082 46.1171C30.2944 46.0554 30.5061 45.9934 30.7161 45.9252C30.8932 45.8681 31.068 45.8064 31.2427 45.7452C31.4497 45.674 31.6556 45.5996 31.8603 45.522C32.035 45.4554 32.2082 45.3848 32.3816 45.3141C32.5817 45.2299 32.7816 45.146 32.9793 45.0618C33.3481 44.898 33.713 44.7253 34.0735 44.5439C34.2424 44.4578 34.4104 44.37 34.5775 44.2805C34.7659 44.1796 34.953 44.0761 35.1386 43.9701C35.3045 43.8758 35.4691 43.7792 35.6324 43.6805C35.8139 43.5688 35.995 43.4566 36.1759 43.3438C36.3376 43.2412 36.4978 43.1363 36.6566 43.0292C36.8335 42.9087 37.0088 42.7858 37.1824 42.6605C37.3379 42.5493 37.4926 42.4371 37.6467 42.3238C37.8174 42.1923 37.9871 42.0592 38.1556 41.9248C38.3053 41.8053 38.4546 41.6865 38.6018 41.5636C38.7696 41.4239 38.9305 41.2792 39.0932 41.1346C39.236 41.0076 39.3795 40.8818 39.519 40.7516C39.6793 40.6015 39.8355 40.4462 39.9919 40.2921C40.1272 40.1581 40.2641 40.0262 40.3967 39.8889C40.4213 39.8635 40.4446 39.8359 40.4701 39.8096C38.6382 38.8616 36.7082 38.1174 34.7145 37.5903C33.6777 40.9039 31.8326 43.906 29.3462 46.3251C29.4143 46.3074 29.4823 46.293 29.5504 46.2753C29.73 46.2248 29.9064 46.1693 30.082 46.1171ZM47 24.3417H36.9284C36.8902 28.282 36.3197 32.1991 35.2325 35.986C37.4497 36.5794 39.5894 37.4326 41.6073 38.5278C44.9206 34.5266 46.817 29.5377 46.9999 24.3417H47ZM24.3399 22.6583H35.2486C35.2058 18.8573 34.6495 15.0796 33.5949 11.4282C30.5573 12.1223 27.4552 12.493 24.3399 12.5341V22.6583ZM24.3399 0V10.8508C27.2767 10.8094 30.2013 10.4644 33.0674 9.82134C31.0848 4.27037 27.9342 0.51173 24.34 0H24.3399ZM24.3399 34.4658C27.4552 34.5073 30.5573 34.8781 33.5949 35.5721C34.6495 31.9206 35.2058 28.1428 35.2486 24.3417H24.3399V34.4658ZM41.6074 8.47215C39.5895 9.56741 37.4498 10.4206 35.2326 11.014C36.3199 14.8009 36.8903 18.718 36.9285 22.6583H47C46.8165 17.4624 44.9202 12.4738 41.6074 8.47215ZM40.4726 7.19525C40.4479 7.17021 40.4246 7.14307 40.4003 7.11719C40.2675 6.97989 40.1296 6.84754 39.9943 6.71403C39.8385 6.5599 39.683 6.40419 39.5222 6.25459C39.3832 6.12466 39.2393 6.00178 39.0965 5.87237C38.9337 5.72771 38.7709 5.58179 38.6035 5.44207C38.4583 5.31919 38.3095 5.20167 38.1618 5.08373C37.9931 4.94649 37.8219 4.81233 37.6484 4.68132C37.4963 4.56725 37.3429 4.45505 37.1882 4.34476C37.0132 4.21754 36.8363 4.09313 36.6574 3.97159C36.5001 3.86574 36.3414 3.76203 36.1812 3.66049C36.0004 3.54331 35.8178 3.42908 35.6333 3.31783C35.4712 3.22021 35.3079 3.12457 35.1436 3.03092C34.9564 2.92365 34.7677 2.81899 34.5776 2.71699C34.4094 2.63271 34.2416 2.54108 34.0735 2.45681C33.8803 2.35896 33.6855 2.26491 33.4858 2.17243C33.3164 2.0917 33.1457 2.01359 32.9739 1.93813C32.7749 1.84976 32.574 1.77012 32.3734 1.68585C32.2009 1.61474 32.0275 1.54568 31.8534 1.47869C31.6488 1.40108 31.4431 1.32683 31.2361 1.25597C31.0613 1.19361 30.8857 1.13346 30.7094 1.07554C30.4995 1.00736 30.2895 0.94529 30.0738 0.882797C29.8991 0.831455 29.7235 0.779272 29.5467 0.73235C29.4791 0.713938 29.4102 0.699525 29.3421 0.68185C31.8283 3.10098 33.6734 6.10306 34.7104 9.4165C36.7065 8.88968 38.6388 8.1448 40.4726 7.19525ZM0 22.6583H10.0715C10.1097 18.718 10.68 14.801 11.767 11.014C9.54987 10.4207 7.41031 9.56755 5.39263 8.47215C2.07941 12.4735 0.183009 17.4623 0 22.6583ZM22.66 46.9998V36.1492C19.7233 36.1906 16.7987 36.5356 13.9326 37.1787C15.9148 42.7296 19.0659 46.4883 22.66 47V46.9998ZM22.66 24.3417H11.7514C11.7939 28.1428 12.3502 31.9207 13.4051 35.5721C16.4426 34.8776 19.5447 34.5067 22.66 34.4658V24.3417ZM22.66 0C19.0659 0.51173 15.9148 4.27037 13.9326 9.82134C16.7986 10.4648 19.7232 10.8098 22.66 10.8508V0ZM22.66 12.5341C19.5448 12.493 16.4426 12.1223 13.4051 11.4282C12.3503 15.0795 11.794 18.8573 11.7514 22.6583H22.66V12.5341ZM17.6513 0.681114C17.5833 0.698683 17.5151 0.713097 17.4471 0.730772C17.2691 0.778431 17.0936 0.831455 16.9163 0.882797C16.7055 0.944448 16.4964 1.00652 16.2848 1.07385C16.1063 1.13182 15.9308 1.19347 15.7553 1.25481C15.5498 1.3274 15.3439 1.39979 15.1404 1.47701C14.9649 1.54445 14.7918 1.6143 14.618 1.68585C14.4182 1.77001 14.218 1.85428 14.0207 1.93813C13.848 2.01476 13.6761 2.09339 13.5052 2.17401C13.311 2.26535 13.1181 2.35934 12.9265 2.45597C12.5669 2.63837 12.212 2.8298 11.8621 3.03008C11.6952 3.12348 11.5301 3.21994 11.3667 3.3194C11.1843 3.42956 11.0038 3.5435 10.8241 3.65607C10.6624 3.75959 10.5021 3.86396 10.3434 3.97169C10.1665 4.0921 9.99118 4.21496 9.81761 4.34023C9.66195 4.45151 9.50704 4.56384 9.3529 4.67721C9.18102 4.80662 9.01691 4.94149 8.84387 5.07595C8.69467 5.19546 8.54411 5.31424 8.39806 5.43786C8.22996 5.57684 8.07047 5.72066 7.90835 5.86458C7.76482 5.99273 7.62003 6.11729 7.47976 6.25006C7.32016 6.39925 7.16477 6.55411 7.00895 6.70782C6.87351 6.84186 6.73575 6.9741 6.60293 7.11182C6.57878 7.13728 6.55537 7.16527 6.52985 7.19115C8.36164 8.13964 10.2917 8.88397 12.2855 9.41082C13.3221 6.09922 15.1664 3.09893 17.6513 0.681114ZM7.00528 40.2859C7.16151 40.44 7.31701 40.5958 7.47734 40.7457C7.61678 40.8751 7.76031 40.9981 7.90342 41.1276C8.06627 41.2726 8.22912 41.4181 8.39648 41.5579C8.54169 41.68 8.68974 41.7978 8.8382 41.9162C9.0063 42.0526 9.17409 42.1882 9.35206 42.3194C9.50346 42.4333 9.65728 42.5433 9.811 42.6564C9.9865 42.7833 10.1637 42.9078 10.3426 43.0299C10.5 43.1357 10.6587 43.2396 10.8188 43.3414C11.0004 43.4582 11.1817 43.5729 11.3667 43.6838C11.5287 43.7816 11.6923 43.8773 11.8564 43.971C12.0435 44.0783 12.2322 44.1829 12.4224 44.2846C12.5902 44.3689 12.7584 44.4605 12.9265 44.5448C13.1197 44.6426 13.3145 44.7367 13.5142 44.8296C13.6839 44.9097 13.8545 44.9876 14.0261 45.0634C14.225 45.1518 14.4256 45.2315 14.6266 45.3157C14.7996 45.3864 14.9719 45.4563 15.1466 45.5229C15.3504 45.6014 15.5572 45.6745 15.7639 45.7459C15.9386 45.8073 16.1133 45.8689 16.2905 45.926C16.5004 45.9942 16.7104 46.0567 16.9262 46.1188C17.1009 46.1701 17.2765 46.2223 17.4529 46.2695C17.5209 46.2881 17.5898 46.3025 17.6579 46.32C15.1718 43.9006 13.3267 40.8984 12.2894 37.585C10.2957 38.1121 8.36566 38.8567 6.53395 39.8055C6.55862 39.8305 6.58204 39.8577 6.6066 39.8836C6.7326 40.02 6.86826 40.1524 7.00528 40.2859ZM5.39263 38.5277C7.41044 37.4326 9.54996 36.5795 11.767 35.9859C10.68 32.1989 10.1097 28.2819 10.0715 24.3416H0C0.183245 29.5376 2.07961 34.5263 5.39263 38.5277Z" fill="#BAE32F"/>
</svg>
