<svg width="75" height="75" viewBox="0 0 75 75" fill="none" xmlns="http://www.w3.org/2000/svg">
<g filter="url(#filter0_d_2112_167)">
<path fill-rule="evenodd" clip-rule="evenodd" d="M20.6655 39.4117C20.7455 40.6422 20.8801 41.6154 21.2193 42.8706C21.3113 43.2111 21.6096 43.4395 21.9625 43.4395H26.6916C26.7996 43.44 26.9064 43.4176 27.005 43.3739C27.1037 43.3303 27.1921 43.2663 27.2644 43.1862C27.3366 43.106 27.3912 43.0116 27.4244 42.9089C27.4577 42.8063 27.4689 42.6978 27.4573 42.5905C27.1781 39.901 27.1481 37.1039 27.3706 34.3909C27.3797 34.2848 27.3666 34.1779 27.3322 34.0772C27.2977 33.9764 27.2427 33.8839 27.1705 33.8056C27.0983 33.7273 27.0106 33.6649 26.913 33.6223C26.8153 33.5797 26.7099 33.558 26.6034 33.5584H21.9625C21.6098 33.5584 21.3114 33.7869 21.2194 34.1274C20.9872 34.9844 20.8247 35.8588 20.7334 36.742C20.6508 37.5439 20.6416 38.0646 20.6459 38.8565L20.6655 39.4117ZM27.8766 30.4614C28.1878 28.718 28.6053 27.0492 29.1199 25.4909C29.3499 24.7942 28.5557 24.1995 27.9517 24.6162C25.9371 26.006 24.2376 27.8224 22.9866 29.9339C22.6817 30.4484 23.0508 31.0958 23.6489 31.0958H27.1188C27.4952 31.0958 27.8106 30.8318 27.8766 30.4614ZM44.5669 30.1766C43.9963 27.2978 43.1138 24.6746 41.9633 22.504C41.8564 22.3024 41.6862 22.1702 41.4643 22.1164C38.8654 21.487 36.1334 21.4875 33.5363 22.1164C33.3144 22.1702 33.1443 22.3023 33.0373 22.504C31.8868 24.6747 31.0043 27.2978 30.4337 30.1766C30.4111 30.2882 30.4137 30.4035 30.4412 30.514C30.4688 30.6245 30.5205 30.7275 30.5928 30.8155C30.6651 30.9036 30.7561 30.9744 30.8592 31.0229C30.9623 31.0713 31.0749 31.0963 31.1888 31.0958H43.8118C44.2995 31.0958 44.6617 30.6549 44.5669 30.1766ZM47.8818 31.0958H51.3518C51.9499 31.0958 52.3189 30.4485 52.0142 29.934C50.7631 27.8221 49.0635 26.0051 47.0486 24.6157C46.4447 24.1992 45.6505 24.7938 45.8806 25.4905C46.3952 27.0489 46.8127 28.7178 47.1239 30.4614C47.1901 30.8318 47.5055 31.0958 47.8818 31.0958ZM48.3091 43.4396H53.0383C53.391 43.4396 53.6894 43.2112 53.7814 42.8707C54.0136 42.0137 54.1761 41.1393 54.2673 40.2561C54.3569 39.38 54.3547 38.9789 54.3547 38.1078C54.3547 37.7588 54.2982 37.0426 54.2672 36.742C54.176 35.8588 54.0134 34.9844 53.7813 34.1274C53.6893 33.7869 53.3909 33.5584 53.0381 33.5584H48.3974C48.2908 33.558 48.1854 33.5797 48.0878 33.6223C47.9901 33.6649 47.9024 33.7273 47.8302 33.8056C47.7581 33.8839 47.703 33.9764 47.6686 34.0772C47.6341 34.1779 47.621 34.2848 47.6302 34.3909C47.8526 37.1039 47.8226 39.9009 47.5434 42.5905C47.5319 42.6978 47.5431 42.8063 47.5763 42.9089C47.6095 43.0116 47.6641 43.1061 47.7363 43.1862C47.8086 43.2664 47.897 43.3304 47.9957 43.374C48.0944 43.4177 48.2012 43.44 48.3091 43.4396ZM46.9451 46.5171C46.5769 48.3105 46.0746 50.105 45.4355 51.7784C45.1711 52.4705 45.9461 53.1007 46.57 52.7009C48.7991 51.2718 50.6633 49.3415 52.0137 47.0641C52.3186 46.5497 51.9495 45.9022 51.3514 45.9022H47.6992C47.3298 45.9022 47.0194 46.1554 46.9451 46.5171ZM29.565 51.778C28.9259 50.1044 28.4237 48.3106 28.0555 46.5171C27.9813 46.1554 27.6708 45.9022 27.3015 45.9022H23.6494C23.0512 45.9022 22.6822 46.5497 22.9871 47.0642C24.3376 49.3413 26.2016 51.2714 28.4306 52.7005C29.0544 53.1003 29.8294 52.4702 29.565 51.778ZM43.597 45.9022H31.4038C31.2879 45.9018 31.1735 45.9276 31.0691 45.9776C30.9646 46.0277 30.8729 46.1007 30.8007 46.1912C30.7285 46.2818 30.6777 46.3875 30.6522 46.5004C30.6267 46.6134 30.6271 46.7307 30.6534 46.8434C31.3457 49.8695 32.3882 52.5698 33.7156 54.6862C33.8325 54.8725 34.0024 54.9895 34.2182 55.0323C36.385 55.4613 38.6139 55.4617 40.7824 55.0323C40.9983 54.9895 41.1681 54.8725 41.285 54.6862C42.6125 52.5698 43.655 49.8701 44.3474 46.8434C44.3736 46.7307 44.374 46.6134 44.3485 46.5004C44.323 46.3875 44.2722 46.2818 44.2 46.1912C44.1278 46.1007 44.0361 46.0277 43.9316 45.9776C43.8272 45.9276 43.7128 45.9018 43.597 45.9022ZM29.6868 38.0055C29.6868 39.6203 29.7819 41.2134 29.9602 42.7582C29.9812 42.946 30.0709 43.1195 30.2121 43.2452C30.3532 43.371 30.5358 43.4402 30.7249 43.4396H44.2759C44.6688 43.4396 44.9955 43.1485 45.0406 42.7582C45.3653 39.9361 45.4007 37.0882 45.1463 34.2589C45.1294 34.0674 45.0413 33.8891 44.8993 33.7594C44.7574 33.6298 44.5719 33.5581 44.3796 33.5585H30.621C30.4287 33.5581 30.2433 33.6298 30.1013 33.7594C29.9593 33.8891 29.8712 34.0674 29.8544 34.2589C29.7424 35.5046 29.6865 36.7547 29.6868 38.0055Z" fill="#98ED3A"/>
</g>
<defs>
<filter id="filter0_d_2112_167" x="0.64502" y="0.644531" width="73.7097" height="73.7097" filterUnits="userSpaceOnUse" color-interpolation-filters="sRGB">
<feFlood flood-opacity="0" result="BackgroundImageFix"/>
<feColorMatrix in="SourceAlpha" type="matrix" values="0 0 0 0 0 0 0 0 0 0 0 0 0 0 0 0 0 0 127 0" result="hardAlpha"/>
<feOffset dy="-1"/>
<feGaussianBlur stdDeviation="10"/>
<feComposite in2="hardAlpha" operator="out"/>
<feColorMatrix type="matrix" values="0 0 0 0 0.596078 0 0 0 0 0.929412 0 0 0 0 0.227451 0 0 0 1 0"/>
<feBlend mode="normal" in2="BackgroundImageFix" result="effect1_dropShadow_2112_167"/>
<feBlend mode="normal" in="SourceGraphic" in2="effect1_dropShadow_2112_167" result="shape"/>
</filter>
</defs>
</svg>
