<svg width="33" height="46" viewBox="0 0 33 46" fill="none" xmlns="http://www.w3.org/2000/svg">
<path d="M19.4552 19.7958H27.7708L20.4831 4.06927C20.2771 3.61732 19.9838 3.21058 19.62 2.87244C19.2561 2.5343 18.829 2.27145 18.3633 2.09902C17.8975 1.92658 17.4022 1.84795 16.9059 1.86767C16.4096 1.88739 15.9221 2.00506 15.4714 2.21392C15.0208 2.42277 14.6159 2.71868 14.28 3.08461C13.9442 3.45055 13.684 3.87929 13.5145 4.34616C13.345 4.81303 13.2695 5.30881 13.2924 5.80497C13.3152 6.30113 13.436 6.78788 13.6476 7.2372L19.4552 19.7958ZM26.9777 11.3522L29.268 5.06006C29.5917 4.17453 29.5715 3.19981 29.2115 2.32843C28.8515 1.45704 28.1778 0.752356 27.3234 0.353558C26.4691 -0.0452406 25.4963 -0.10915 24.5971 0.174452C23.6979 0.458054 22.9378 1.06854 22.4669 1.88534C22.6918 2.19956 22.8882 2.53319 23.0539 2.88227L26.9777 11.3522ZM3.77134 32.0543C4.77157 32.0543 5.73082 31.6569 6.43809 30.9497C7.14535 30.2424 7.54269 29.2831 7.54269 28.2829V20.7402C7.54266 20.2137 7.43239 19.693 7.21899 19.2117C7.00558 18.7303 6.69377 18.299 6.30361 17.9454C5.91346 17.5919 5.4536 17.3239 4.95363 17.1588C4.45366 16.9936 3.92466 16.935 3.40067 16.9867C1.44001 17.1738 0 18.9329 0 20.9025V28.2829C0 29.2831 0.397337 30.2424 1.1046 30.9497C1.81187 31.6569 2.77112 32.0543 3.77134 32.0543ZM11.3187 30.167C11.9586 30.1688 12.5883 30.0064 13.1477 29.6956C12.5641 28.6939 12.2582 27.5548 12.2615 26.3956C12.263 25.3326 12.5209 24.2856 13.0133 23.3435C13.5057 22.4013 14.2181 21.5919 15.09 20.9838V18.8529C15.0898 18.3259 14.9792 17.8048 14.7653 17.3232C14.5513 16.8416 14.2389 16.4101 13.8481 16.0566C13.4573 15.703 12.9967 15.4353 12.4961 15.2706C11.9955 15.106 11.4659 15.048 10.9415 15.1005C8.98043 15.289 7.54732 17.0428 7.54732 19.0133V26.3956C7.54718 26.8909 7.64463 27.3814 7.83411 27.839C8.02359 28.2967 8.30138 28.7125 8.65161 29.0627C9.00184 29.4129 9.41764 29.6907 9.87527 29.8802C10.3329 30.0697 10.8234 30.1671 11.3187 30.167Z" fill="#BAE32F"/>
<path d="M29.2289 22.626H18.8458C18.1053 22.6296 17.3822 22.8512 16.7668 23.2631C13.6026 25.4417 15.3032 30.163 19.0741 30.167H24.5188C19.8595 30.1415 15.7529 33.7024 15.1723 38.3466C15.1312 38.6893 14.9663 39.0053 14.7088 39.2353C14.4512 39.4652 14.1186 39.5932 13.7734 39.5954C11.2915 39.3976 12.6077 35.8271 13.8844 33.554C14.1338 33.1101 13.7329 32.5608 13.2449 32.7053C11.8016 33.1324 10.2084 33.0939 8.83734 32.5072C6.86418 35.0628 2.61721 35.667 0.000976562 33.6914V37.7114C0.000976563 39.7118 0.79565 41.6303 2.21018 43.0448C3.62471 44.4594 5.54322 45.254 7.54367 45.254H25.4576C27.458 45.254 29.3765 44.4594 30.791 43.0448C32.2056 41.6303 33.0002 39.7118 33.0002 37.7114V26.3973C33.0002 25.3971 32.6029 24.4378 31.8956 23.7306C31.1884 23.0233 30.2291 22.626 29.2289 22.626Z" fill="#BAE32F"/>
</svg>
