<svg width="42" height="41" viewBox="0 0 42 41" fill="none" xmlns="http://www.w3.org/2000/svg">
<path d="M42 18.3974C42 19.5127 41.5575 20.5823 40.7698 21.3709C39.9822 22.1595 38.9139 22.6026 37.8 22.6026H4.2C3.08609 22.6026 2.0178 22.1595 1.23015 21.3709C0.442499 20.5823 0 19.5127 0 18.3974C0 17.2822 0.442499 16.2126 1.23015 15.424C2.0178 14.6353 3.08609 14.1923 4.2 14.1923H4.8762C5.9115 6.19836 12.7386 0 21 0C29.2614 0 36.0885 6.19836 37.1238 14.1923H37.8C38.9139 14.1923 39.9822 14.6353 40.7698 15.424C41.5575 16.2126 42 17.2822 42 18.3974ZM37.8 25.7564C38.346 25.7564 38.871 25.6933 39.375 25.5882V30.5082C39.375 36.2903 34.671 41 28.896 41C26.082 41 23.457 39.9067 21.483 37.9303L21 37.4467L20.517 37.9303C18.543 39.9067 15.918 41 13.104 41C7.329 41 2.625 36.2903 2.625 30.5082V25.5882C3.129 25.6933 3.654 25.7564 4.2 25.7564H37.8ZM16.275 33.1154C16.275 32.6972 16.1091 32.2961 15.8137 32.0003C15.5183 31.7046 15.1177 31.5385 14.7 31.5385H10.5C10.0823 31.5385 9.68168 31.7046 9.38631 32.0003C9.09094 32.2961 8.925 32.6972 8.925 33.1154C8.925 33.5336 9.09094 33.9347 9.38631 34.2304C9.68168 34.5262 10.0823 34.6923 10.5 34.6923H14.7C15.1177 34.6923 15.5183 34.5262 15.8137 34.2304C16.1091 33.9347 16.275 33.5336 16.275 33.1154ZM33.075 33.1154C33.075 32.6972 32.9091 32.2961 32.6137 32.0003C32.3183 31.7046 31.9177 31.5385 31.5 31.5385H27.3C26.8823 31.5385 26.4817 31.7046 26.1863 32.0003C25.8909 32.2961 25.725 32.6972 25.725 33.1154C25.725 33.5336 25.8909 33.9347 26.1863 34.2304C26.4817 34.5262 26.8823 34.6923 27.3 34.6923H31.5C31.9177 34.6923 32.3183 34.5262 32.6137 34.2304C32.9091 33.9347 33.075 33.5336 33.075 33.1154Z" fill="#BAE32F"/>
</svg>
