<svg width="42" height="47" viewBox="0 0 42 47" fill="none" xmlns="http://www.w3.org/2000/svg">
<path fill-rule="evenodd" clip-rule="evenodd" d="M4.55998 22.7216L3.85277 24.5827C3.75809 24.8359 3.55521 25.004 3.29435 25.062C3.03157 25.1161 2.78035 25.0427 2.591 24.8533L0.751476 23.0134C0.564045 22.826 0.488686 22.5728 0.542793 22.3099C0.596893 22.0471 0.770802 21.85 1.02199 21.7514L2.72816 21.104L4.55998 22.7216ZM7.1318 30.4347C6.20625 30.9294 5.5628 31.8995 5.55315 33.0224L5.41016 44.0012C5.39084 45.6381 6.70092 46.9793 8.33368 46.9986C9.9703 47.018 11.3113 45.7077 11.3306 44.0746L11.4504 34.862L17.8809 31.4626L18.7312 31.0123C18.7698 31.2346 18.8104 31.4568 18.849 31.6752L20.0857 38.6614H20.0953C20.2383 39.4886 20.733 40.25 21.5155 40.7042L31.5595 46.5926C32.9701 47.4197 34.7844 46.9482 35.6114 45.5335C36.4385 44.1227 35.967 42.3081 34.5526 41.4809L25.6973 36.2921L24.2287 28.0051C24.2886 27.7732 24.3331 27.5355 24.3582 27.292C24.6152 24.942 24.6847 22.9031 24.5108 21.0538C23.3727 18.2149 21.9525 15.3005 18.1748 14.6281C16.3894 14.431 14.6136 14.9142 13.0506 15.7471C13.0352 15.7568 13.0159 15.7664 13.0004 15.7722C12.3318 16.1278 11.7096 16.5491 11.1396 17.0033C11.0411 17.0825 10.9426 17.1617 10.8479 17.2449L9.7948 20.0954L8.92337 19.3243L8.68184 19.1117L8.36495 18.8354L7.80653 18.3406L6.1255 16.8564C6.0656 16.8061 6.00763 16.7578 5.94193 16.7134C5.73325 16.5646 5.50138 16.466 5.26371 16.4119C4.99706 16.3481 4.7188 16.3423 4.45218 16.3926C4.03675 16.4718 3.64064 16.6844 3.3392 17.0264C2.61656 17.842 2.69189 19.0904 3.5073 19.8113L6.42498 22.3835L9.24027 24.8669C9.43736 25.0698 9.68469 25.2322 9.97261 25.3365C10.9967 25.7134 12.1348 25.1877 12.5096 24.1596L14.0922 19.8692C14.1617 19.9987 14.2255 20.1321 14.2796 20.2654C14.809 21.5757 14.838 23.4619 14.5327 26.2369C14.523 26.3355 14.5134 26.4302 14.5076 26.523L7.1318 30.4347ZM18.2616 24.5517C18.3215 24.5227 18.3756 24.4918 18.4355 24.4666L18.2616 24.5517ZM22.9318 15.4336C21.844 14.3456 20.4141 13.5146 18.4161 13.1628L18.3717 13.157C16.2443 12.9155 14.1613 13.4682 12.3507 14.4325C11.4909 14.8925 10.6832 15.4414 9.96635 16.0462C9.5258 16.4173 9.12005 16.8038 8.74515 17.198L7.09888 15.7428C6.94624 15.6037 6.77813 15.4858 6.61002 15.3814C7.26698 14.16 7.97033 13.0372 8.7181 12.0168C9.91032 10.3895 11.2107 9.00969 12.5768 7.86174C16.0684 4.93772 20.0219 3.50762 23.8748 3.18683C26.6108 2.95879 29.2967 3.28539 31.7294 4.03328C34.1583 4.7754 36.3301 5.93299 38.0516 7.367C41.1258 9.93733 42.7334 13.391 41.6746 16.8987C41.1104 18.7694 39.0428 21.4055 36.5346 23.3457C35.1897 24.3893 33.7251 25.2203 32.3242 25.5971C31.0142 25.9527 29.7563 25.9083 28.7186 25.2512C27.9766 24.7816 27.3197 23.9796 26.7999 22.7717C26.5777 22.2576 26.3787 21.7474 26.1758 21.2276C25.3797 19.1983 24.5298 17.0319 22.9318 15.4336ZM11.6378 6.71181C11.6765 6.42965 11.7016 6.14365 11.7016 5.8518C11.7016 2.61664 9.07951 0 5.85079 0C2.61618 0 0 2.62252 0 5.8518C0 9.08696 2.62207 11.7036 5.85079 11.7036C6.32999 11.7036 6.78985 11.6437 7.23623 11.5413C8.5811 9.62993 10.065 8.02787 11.6378 6.71181Z" fill="#BAE32F"/>
</svg>
