<svg width="39" height="37" viewBox="0 0 39 37" fill="none" xmlns="http://www.w3.org/2000/svg">
<path d="M38.1897 28.3121L24.4129 2.81556C22.1994 -0.936029 16.8036 -0.941014 14.5871 2.81556L0.810993 28.3121C-1.45177 32.1456 1.28775 37 5.72271 37H33.2768C37.7081 37 40.4525 32.1495 38.1897 28.3121ZM19.5 32.3988C18.2403 32.3988 17.2148 31.3664 17.2148 30.0982C17.2148 28.8299 18.2403 27.7976 19.5 27.7976C20.7597 27.7976 21.7852 28.8299 21.7852 30.0982C21.7852 31.3664 20.7597 32.3988 19.5 32.3988ZM21.7852 23.1964C21.7852 24.4646 20.7597 25.497 19.5 25.497C18.2403 25.497 17.2148 24.4646 17.2148 23.1964V11.6934C17.2148 10.4251 18.2403 9.39276 19.5 9.39276C20.7597 9.39276 21.7852 10.4251 21.7852 11.6934V23.1964Z" fill="#BAE32F"/>
</svg>
