<svg width="1499" height="139" viewBox="0 0 1499 139" fill="none" xmlns="http://www.w3.org/2000/svg">
<path opacity="0.68" d="M111.172 139H14.5582L0.953409 125.395V97.7912H28.5574V111.396H97.3701V83.9892H14.5582L0.953409 74.1307V14.9793L14.5582 0.980148H111.172L124.777 14.9793V42.3861H97.3701V28.5841H28.5574V56.1881H111.172L124.777 69.9901V125.395L111.172 139ZM254.622 139H158.008L144.403 125.395V14.9793L158.008 0.980148H254.622L268.227 14.9793V42.3861H240.82V28.5841H172.007V111.396H240.82V97.7912H268.227V125.395L254.622 139ZM311.56 70.1872H380.372V28.5841H338.966L311.56 56.3853V70.1872ZM311.56 139H283.956V42.5833L325.164 0.980148H407.779V139H380.372V97.7912H311.56V139ZM455.056 139H427.452V0.980148H455.056L503.165 67.8212L552.064 0.980148H578.682V139H551.078V45.9352L514.996 98.9742H491.927L455.056 45.9352V139ZM704.986 139H677.382V0.980148H704.986V56.3853H773.798V0.980148H801.205V139H773.798V83.9892H704.986V139ZM820.831 0.980148H848.435V111.396H917.248V0.980148H944.655V125.395L931.05 139H834.436L820.831 125.395V0.980148ZM1088.1 139H1060.7L991.885 46.921V139H964.281V0.980148H991.885L1060.7 92.8619V0.980148H1088.1V139ZM1177.73 139H1150.12V28.5841H1101.82V0.980148H1225.64V28.5841H1177.73V139ZM1356.55 139H1239.43V0.980148H1356.55V28.5841H1267.04V56.3853H1349.65V83.9892H1267.04V111.396H1356.55V139ZM1401.82 70.1872H1470.64V28.5841H1401.82V70.1872ZM1498.04 139H1470.64V125.395L1456.83 111.396L1443.03 97.7912H1401.82V139H1374.22V0.980148H1484.44L1498.04 14.9793V83.9892L1484.44 97.7912L1498.04 111.396V139Z" fill="url(#paint0_linear_6137_430)" fill-opacity="0.85"/>
<defs>
<linearGradient id="paint0_linear_6137_430" x1="786.127" y1="20" x2="781.372" y2="158.315" gradientUnits="userSpaceOnUse">
<stop stop-color="#242423"/>
<stop offset="1" stop-color="#131312" stop-opacity="0"/>
</linearGradient>
</defs>
</svg>
