<svg width="45" height="55" viewBox="0 0 45 55" fill="none" xmlns="http://www.w3.org/2000/svg">
<path fill-rule="evenodd" clip-rule="evenodd" d="M21.3125 0.140564L3.8125 4.41811C2.72492 4.68403 1.75806 5.30728 1.06679 6.18802C0.375531 7.06877 -0.000125765 8.15604 1.47104e-07 9.27567V30.5309C-0.000476443 34.6553 1.1571 38.697 3.34095 42.1958C5.52479 45.6946 8.64714 48.5099 12.3525 50.3212L21.4025 54.7462C21.7443 54.9132 22.1196 55 22.5 55C22.8804 55 23.2557 54.9132 23.5975 54.7462L32.6475 50.3212C36.3529 48.5099 39.4752 45.6946 41.6591 42.1958C43.8429 38.697 45.0005 34.6553 45 30.5309V9.27567C45.0001 8.15604 44.6245 7.06877 43.9332 6.18802C43.2419 5.30728 42.2751 4.68403 41.1875 4.41811L23.6875 0.143064C22.9073 -0.047688 22.0927 -0.0501879 21.3125 0.140564ZM34.2675 21.7658C34.7229 21.2943 34.9749 20.6628 34.9692 20.0073C34.9635 19.3518 34.7006 18.7248 34.237 18.2612C33.7735 17.7977 33.1465 17.5348 32.491 17.5291C31.8355 17.5234 31.204 17.7754 30.7325 18.2308L20 28.9634L14.2675 23.2308C14.0369 22.9921 13.761 22.8016 13.456 22.6706C13.151 22.5396 12.823 22.4706 12.491 22.4677C12.1591 22.4648 11.8299 22.5281 11.5226 22.6538C11.2154 22.7795 10.9362 22.9651 10.7015 23.1999C10.4668 23.4346 10.2811 23.7137 10.1554 24.021C10.0297 24.3282 9.96649 24.6574 9.96937 24.9894C9.97226 25.3213 10.0412 25.6494 10.1722 25.9544C10.3033 26.2594 10.4937 26.5353 10.7325 26.7659L18.2325 34.266C18.7013 34.7347 19.3371 34.9979 20 34.9979C20.6629 34.9979 21.2987 34.7347 21.7675 34.266L34.2675 21.7658Z" fill="#BAE32F"/>
</svg>
