<svg width="12" height="11" viewBox="0 0 12 11" fill="none" xmlns="http://www.w3.org/2000/svg">
<path d="M11.8734 4.57681L9.24365 7.04263L9.86468 10.5253C9.87798 10.6 9.8693 10.6768 9.83961 10.747C9.80992 10.8171 9.76041 10.8779 9.69668 10.9225C9.63295 10.967 9.55754 10.9935 9.47897 10.9989C9.4004 11.0044 9.32182 10.9886 9.2521 10.9533L6.00048 9.30906L2.74929 10.9529C2.67957 10.9882 2.60098 11.004 2.52242 10.9985C2.44385 10.9931 2.36844 10.9666 2.30471 10.9221C2.24098 10.8775 2.19147 10.8167 2.16178 10.7466C2.13209 10.6764 2.12341 10.5996 2.13671 10.5249L2.75773 7.04223L0.127565 4.57681C0.0711109 4.52391 0.0311814 4.45685 0.0122968 4.38324C-0.00658785 4.30964 -0.00367333 4.23241 0.0207104 4.16031C0.0450942 4.08822 0.0899733 4.02412 0.150268 3.97529C0.210562 3.92646 0.283863 3.89484 0.361874 3.88401L3.9964 3.37639L5.62179 0.208023C5.76406 -0.0693411 6.2369 -0.0693411 6.37918 0.208023L8.00456 3.37639L11.6391 3.88401C11.7169 3.89513 11.79 3.9269 11.8501 3.97577C11.9102 4.02463 11.9549 4.08865 11.9792 4.16063C12.0036 4.2326 12.0066 4.30969 11.9879 4.38321C11.9692 4.45673 11.9295 4.52378 11.8734 4.57681Z" fill="#98ED3A"/>
</svg>
