<svg width="22" height="25" viewBox="0 0 22 25" fill="none" xmlns="http://www.w3.org/2000/svg">
<circle cx="11" cy="11" r="11" fill="#3C3C3C"/>
<g filter="url(#filter0_d_2112_84)">
<circle cx="11" cy="11" r="7" fill="url(#paint0_linear_2112_84)"/>
</g>
<path d="M10.6804 13.8844C10.6136 13.9586 10.5224 14 10.4278 14C10.3331 14 10.2419 13.9586 10.1751 13.8844L8.15707 11.6564C7.94764 11.4253 7.94764 11.0504 8.15707 10.8196L8.40975 10.5406C8.61924 10.3095 8.95845 10.3095 9.16787 10.5406L10.4278 11.9315L13.8321 8.17338C14.0416 7.94221 14.3812 7.94221 14.5902 8.17338L14.8429 8.45239C15.0524 8.68356 15.0524 9.05837 14.8429 9.28918L10.6804 13.8844Z" fill="black"/>
<defs>
<filter id="filter0_d_2112_84" x="0" y="3" width="22" height="22" filterUnits="userSpaceOnUse" color-interpolation-filters="sRGB">
<feFlood flood-opacity="0" result="BackgroundImageFix"/>
<feColorMatrix in="SourceAlpha" type="matrix" values="0 0 0 0 0 0 0 0 0 0 0 0 0 0 0 0 0 0 127 0" result="hardAlpha"/>
<feOffset dy="3"/>
<feGaussianBlur stdDeviation="2"/>
<feComposite in2="hardAlpha" operator="out"/>
<feColorMatrix type="matrix" values="0 0 0 0 0 0 0 0 0 0 0 0 0 0 0 0 0 0 0.52 0"/>
<feBlend mode="normal" in2="BackgroundImageFix" result="effect1_dropShadow_2112_84"/>
<feBlend mode="normal" in="SourceGraphic" in2="effect1_dropShadow_2112_84" result="shape"/>
</filter>
<linearGradient id="paint0_linear_2112_84" x1="11" y1="4" x2="13.5" y2="18" gradientUnits="userSpaceOnUse">
<stop stop-color="#F3F3F3"/>
<stop offset="1" stop-color="#B4B4B4"/>
</linearGradient>
</defs>
</svg>
